<svg alt="Muval Logo" width="122" height="24" viewBox="0 0 122 24" fill="none" xmlns="http://www.w3.org/2000/svg"> <path d="M9.9007 18.0664C15.8042 11.7407 15.4171 7.17114 14.6494 5.00712C14.2939 3.9385 13.6514 2.98821 12.7921 2.26015C11.9329 1.53209 10.89 1.05429 9.77754 0.879014C9.51992 0.84389 9.26022 0.826256 9.00022 0.826233C8.0822 0.835377 7.18002 1.06649 6.37067 1.49985C5.56132 1.93321 4.86883 2.55596 4.3523 3.31493C3.38505 4.72452 2.94974 6.43176 3.12394 8.13239C3.48221 12.2749 5.41432 14.65 7.65351 17.3962C6.91556 18.3353 5.98596 19.1063 4.92664 19.6579C3.86733 20.2095 2.70262 20.529 1.51013 20.5951C1.23162 20.6058 0.968087 20.724 0.774835 20.9249C0.581584 21.1257 0.473633 21.3936 0.473633 21.6723C0.473633 21.951 0.581584 22.2189 0.774835 22.4197C0.968087 22.6206 1.23162 22.7388 1.51013 22.7495C4.59701 22.7495 7.49357 21.1389 9.8815 18.0952L9.9007 18.0664ZM9.08979 15.744C7.03613 13.2186 5.57106 11.304 5.27517 7.94686C5.14333 6.75369 5.4398 5.55249 6.11166 4.55768C6.46835 4.0086 6.97283 3.57138 7.56703 3.29635C8.16123 3.02132 8.82102 2.91965 9.47045 3.00305C10.1926 3.12442 10.8673 3.44238 11.4206 3.92203C11.9739 4.40167 12.3843 5.02447 12.6069 5.72206C13.5554 8.40749 12.2758 12.0174 9.08819 15.7376L9.08979 15.744Z" fill="#FF5C00"></path> <path d="M30.1318 5.00872C29.7773 3.94017 29.1358 2.9897 28.2774 2.26132C27.419 1.53295 26.3767 1.05473 25.2647 0.879014C25.0071 0.843929 24.7474 0.826295 24.4874 0.826233C23.5687 0.836268 22.666 1.06861 21.8566 1.50339C21.0472 1.93817 20.3551 2.56247 19.8395 3.32293C18.8764 4.73126 18.443 6.43504 18.6159 8.13239C18.9742 12.2765 20.9063 14.6532 23.1439 17.3978C20.9047 19.9569 18.1521 21.0477 15.4667 20.4112C14.6131 20.1917 13.8106 19.8076 13.1043 19.2804L12.5749 18.8981C12.4603 18.8101 12.3293 18.7461 12.1895 18.7097C12.0497 18.6733 11.9041 18.6653 11.7612 18.6862C11.6182 18.7072 11.481 18.7565 11.3575 18.8315C11.234 18.9064 11.1268 19.0053 11.0422 19.1224C10.9577 19.2395 10.8975 19.3724 10.8652 19.5132C10.8329 19.654 10.8292 19.7998 10.8543 19.942C10.8794 20.0843 10.9328 20.22 11.0113 20.3413C11.0898 20.4625 11.1918 20.5668 11.3114 20.6479L11.844 21.0317C12.7785 21.7228 13.8399 22.2233 14.9676 22.5048C15.618 22.6597 16.284 22.7385 16.9525 22.7399C18.5332 22.6738 20.0795 22.258 21.4801 21.5223C22.8806 20.7866 24.1006 19.7494 25.052 18.4855C25.3719 18.0968 25.719 17.7145 26.0548 17.3307C31.2594 11.3856 30.8659 7.08637 30.1318 5.00872ZM24.577 15.744C22.5201 13.2186 21.0486 11.304 20.7592 7.94686C20.6301 6.75342 20.9275 5.55282 21.5989 4.55768C21.9555 4.0086 22.46 3.57138 23.0542 3.29635C23.6484 3.02132 24.3082 2.91965 24.9576 3.00305C25.6798 3.12524 26.3545 3.44344 26.9082 3.92293C27.4619 4.40242 27.8732 5.02476 28.0973 5.72206C29.0426 8.40749 27.763 12.0174 24.5786 15.7376L24.577 15.744Z" fill="#FF5C00"></path> <path d="M31.1521 21.2764C31.1065 21.5164 30.9807 21.7337 30.7952 21.8927C30.6098 22.0517 30.3758 22.1429 30.1317 22.1513C30.035 22.1543 29.9382 22.1452 29.8438 22.1241C28.7634 21.885 27.7478 21.414 26.8673 20.7438C26.6296 20.5812 26.4637 20.3332 26.4041 20.0514C26.3445 19.7696 26.3958 19.4757 26.5474 19.2308C26.7062 18.9934 26.9527 18.8288 27.2328 18.773C27.5128 18.7172 27.8036 18.7749 28.0412 18.9333L28.0748 18.9573C28.7253 19.4725 29.4827 19.8359 30.2916 20.0209C30.5669 20.0832 30.8085 20.2471 30.968 20.4799C31.1276 20.7127 31.1933 20.9972 31.1521 21.2764Z" fill="#FF5C00"></path> <path d="M33.7496 22.8247C34.345 22.8247 34.8277 22.342 34.8277 21.7467C34.8277 21.1513 34.345 20.6686 33.7496 20.6686C33.1543 20.6686 32.6716 21.1513 32.6716 21.7467C32.6716 22.342 33.1543 22.8247 33.7496 22.8247Z" fill="#FF5C00"></path> <path d="M58.336 7.66537C59.4168 7.04592 60.652 6.74795 61.8964 6.80648C62.8483 6.78177 63.7953 6.95157 64.6794 7.3055C65.4177 7.6145 66.0671 8.1033 66.5683 8.72739C67.0751 9.3769 67.4372 10.1273 67.6303 10.9282C67.8588 11.8705 67.969 12.8376 67.9582 13.8072V22.7911H65.2392V13.4569C65.3165 12.3513 64.9953 11.2545 64.3339 10.3652C63.9891 9.99595 63.5658 9.70893 63.0951 9.52538C62.6245 9.34183 62.1186 9.26644 61.6149 9.30478C60.84 9.2743 60.07 9.43931 59.3757 9.78461C58.7971 10.0927 58.3075 10.5443 57.9538 11.0961C57.5809 11.6981 57.3268 12.3659 57.2053 13.0634C57.0553 13.8715 56.9825 14.6919 56.9877 15.5137V22.7911H54.2975V13.4569C54.3793 12.3495 54.0572 11.2501 53.3906 10.362C53.0372 9.99158 52.606 9.70419 52.128 9.52054C51.6501 9.33689 51.1374 9.26156 50.6268 9.29998C49.8592 9.26962 49.0964 9.43472 48.41 9.77981C47.8373 10.0913 47.3576 10.5495 47.0201 11.1073C46.659 11.7172 46.4154 12.3894 46.302 13.089C46.1638 13.8882 46.0964 14.6979 46.1005 15.5089V22.7911H43.415V7.18235H46.0061C46.0056 7.33984 46.0485 7.49443 46.13 7.62916C46.2116 7.76388 46.3287 7.87353 46.4685 7.94607C46.6083 8.01862 46.7654 8.05125 46.9225 8.04038C47.0796 8.02952 47.2307 7.97558 47.3592 7.88449C47.5552 7.74161 47.7604 7.61177 47.9734 7.49583C48.8981 7.01647 49.9296 6.78034 50.9707 6.80968C52.113 6.75874 53.2443 7.05241 54.2175 7.65258C55.0446 8.20751 55.6951 8.98795 56.0921 9.90137C56.6732 9.00544 57.4381 8.24327 58.336 7.66537Z" fill="black"></path> <path d="M84.2562 22.7911H81.6635V22.7463C81.6612 22.6315 81.6363 22.5182 81.5902 22.4131C81.5441 22.3079 81.4777 22.2128 81.3948 22.1333C81.3119 22.0538 81.2141 21.9915 81.1071 21.9499C81 21.9082 80.8858 21.8881 80.771 21.8906C80.5786 21.8939 80.3928 21.9615 80.2432 22.0826C80.0405 22.24 79.8267 22.3827 79.6035 22.5096C78.7007 22.9787 77.6916 23.2058 76.6749 23.1686C75.7272 23.1987 74.7843 23.023 73.9111 22.6535C73.2074 22.3372 72.5911 21.8548 72.115 21.2477C71.6401 20.6174 71.3048 19.8934 71.1313 19.1236C70.9266 18.2385 70.8273 17.3323 70.8354 16.4238V7.17914H73.5832V16.4206C73.5805 16.997 73.634 17.5724 73.7432 18.1384C73.8325 18.6209 74.0245 19.0785 74.3062 19.4803C74.5865 19.8641 74.9642 20.1661 75.4002 20.3552C76.0375 20.5922 76.7166 20.6964 77.3956 20.6614C78.0747 20.6265 78.7395 20.4532 79.3491 20.1521C79.9138 19.8192 80.3827 19.3459 80.7102 18.7781C81.058 18.165 81.2905 17.4934 81.3964 16.7965C81.5239 16.0225 81.5871 15.2393 81.5851 14.4549V7.17914H84.2562V22.7911Z" fill="black"></path> <path d="M86 7.17914H89.1509L93.9283 19.1124L98.7362 7.18554H101.86L95.419 21.825C95.2917 22.1139 95.0831 22.3596 94.8188 22.5323C94.5545 22.7049 94.2457 22.797 93.9299 22.7975C93.6139 22.7976 93.3047 22.7057 93.04 22.533C92.7753 22.3603 92.5666 22.1143 92.4393 21.825L86 7.17914Z" fill="black"></path> <path d="M104.751 7.90047C106.047 7.08971 107.565 6.70699 109.091 6.80647C111.256 6.80647 112.843 7.31135 113.852 8.32112C114.382 8.90222 114.789 9.58413 115.049 10.3261C115.309 11.0681 115.417 11.8549 115.367 12.6396V22.7911H112.681C112.683 22.6238 112.64 22.4592 112.555 22.3149C112.47 22.1706 112.348 22.0521 112.201 21.9722C112.054 21.8922 111.888 21.8538 111.721 21.8612C111.554 21.8685 111.392 21.9213 111.253 22.0138C111.031 22.1688 110.798 22.3082 110.557 22.4312C109.627 22.8939 108.599 23.1269 107.56 23.111C106.791 23.1216 106.027 22.9915 105.305 22.7271C104.691 22.5036 104.129 22.1587 103.652 21.7131C103.203 21.2835 102.852 20.7619 102.622 20.184C102.38 19.5734 102.258 18.9217 102.263 18.2647C102.25 17.5998 102.378 16.9397 102.638 16.3278C102.883 15.7733 103.245 15.2784 103.699 14.8772C104.171 14.4614 104.712 14.1323 105.298 13.9047C105.938 13.657 106.612 13.5045 107.296 13.4521L111.698 13.0154C112.364 12.9493 112.697 12.6684 112.697 12.1725V11.7647C112.709 11.4095 112.637 11.0566 112.489 10.7339C112.34 10.4113 112.118 10.1278 111.84 9.90615C111.076 9.38149 110.155 9.13375 109.231 9.204C108.286 9.16921 107.35 9.40206 106.531 9.87576C106.166 10.1122 105.858 10.4263 105.629 10.7957C105.399 11.1651 105.254 11.5806 105.204 12.0126L102.83 10.733C103.109 9.58851 103.791 8.58283 104.751 7.90047ZM107.592 15.9552C106.876 15.99 106.196 16.278 105.673 16.7677C105.277 17.1777 105.059 17.727 105.065 18.2967C105.057 18.6074 105.118 18.9159 105.245 19.1996C105.372 19.4833 105.56 19.735 105.797 19.9361C106.419 20.4055 107.191 20.6328 107.968 20.5759C108.651 20.5887 109.329 20.467 109.965 20.2176C110.515 20.0005 111.018 19.6796 111.446 19.2724C111.837 18.8996 112.15 18.4533 112.368 17.9592C112.575 17.4978 112.684 16.9983 112.688 16.4926V15.3378L107.592 15.9552Z" fill="black"></path> <path d="M121.566 22.7911H118.817V0.934998H121.566V22.7911Z" fill="black"></path> </svg>